STARTFONT 2.1
FONT -ibm-courier-bold-o-normal--14-140-100-100-m-107-iso8859-2
SIZE 14 100 100
FONTBOUNDINGBOX 18 22 -1 -3
COMMENT $Header: courBO14.bdf,v 1.1 96/01/22 23:46:53 peterlin Exp $
COMMENT 
COMMENT Copyright International Business Machines,Corp. 1991
COMMENT IBM Courier is a Trademark of the IBM Corporation.
COMMENT 
COMMENT Automatic rendering from Adobe Type 1 outline:
COMMENT Primoz Peterlin <primoz.peterlin@biofiz.mf.uni-lj.si>
COMMENT courbi.pfa rendered at 15.000000 points
COMMENT Checksum eb69a063
STARTPROPERTIES 3
FONT_ASCENT 18
FONT_DESCENT 3
DEFAULT_CHAR 32
ENDPROPERTIES
CHARS 191
STARTCHAR space
ENCODING 32
SWIDTH 573 0
DWIDTH 12 0
BBX 0 0 0 1
BITMAP
ENDCHAR
STARTCHAR exclam
ENCODING 33
SWIDTH 573 0
DWIDTH 12 0
BBX 6 12 4 1
BITMAP
1c
1c
18
18
18
18
30
30
00
70
f0
60
ENDCHAR
STARTCHAR quotedbl
ENCODING 34
SWIDTH 573 0
DWIDTH 12 0
BBX 8 7 4 6
BITMAP
77
77
66
66
ee
ee
cc
ENDCHAR
STARTCHAR numbersign
ENCODING 35
SWIDTH 573 0
DWIDTH 12 0
BBX 12 16 2 -1
BITMAP
0460
0c60
0c60
0c40
7ff0
7ff0
1880
1080
1180
ffe0
ffe0
2300
2300
6300
6200
6200
ENDCHAR
STARTCHAR dollar
ENCODING 36
SWIDTH 573 0
DWIDTH 12 0
BBX 11 17 2 -2
BITMAP
0200
0200
0740
1fe0
36c0
3680
3600
1e00
0f80
0d80
6d80
6d80
ff00
de00
0800
1800
1000
ENDCHAR
STARTCHAR percent
ENCODING 37
SWIDTH 573 0
DWIDTH 12 0
BBX 11 13 2 1
BITMAP
3c00
7e00
c600
c600
fc20
3be0
1f00
f3c0
47e0
0c60
0c60
0fc0
0780
ENDCHAR
STARTCHAR ampersand
ENCODING 38
SWIDTH 573 0
DWIDTH 12 0
BBX 10 12 2 1
BITMAP
0780
0f80
1880
1800
1800
18c0
3dc0
6580
c700
c700
7f80
3b00
ENDCHAR
STARTCHAR quoteright
ENCODING 39
SWIDTH 573 0
DWIDTH 12 0
BBX 6 6 5 7
BITMAP
1c
38
30
70
60
c0
ENDCHAR
STARTCHAR parenleft
ENCODING 40
SWIDTH 573 0
DWIDTH 12 0
BBX 6 16 7 -1
BITMAP
0c
18
30
30
60
60
60
c0
c0
c0
c0
c0
c0
c0
40
60
ENDCHAR
STARTCHAR parenright
ENCODING 41
SWIDTH 573 0
DWIDTH 12 0
BBX 6 16 2 -1
BITMAP
18
08
0c
0c
0c
0c
0c
0c
0c
1c
18
18
30
70
60
c0
ENDCHAR
STARTCHAR asterisk
ENCODING 42
SWIDTH 573 0
DWIDTH 12 0
BBX 9 8 4 5
BITMAP
0c00
0c00
6d80
ff80
3e00
3c00
6e00
6400
ENDCHAR
STARTCHAR plus
ENCODING 43
SWIDTH 573 0
DWIDTH 12 0
BBX 11 11 2 2
BITMAP
0600
0600
0600
0600
ffe0
ffe0
0600
0600
0600
0600
0600
ENDCHAR
STARTCHAR comma
ENCODING 44
SWIDTH 573 0
DWIDTH 12 0
BBX 6 6 3 -1
BITMAP
1c
38
38
70
60
e0
ENDCHAR
STARTCHAR minus
ENCODING 45
SWIDTH 573 0
DWIDTH 12 0
BBX 10 2 3 7
BITMAP
ffc0
ffc0
ENDCHAR
STARTCHAR period
ENCODING 46
SWIDTH 573 0
DWIDTH 12 0
BBX 4 4 5 1
BITMAP
70
f0
f0
40
ENDCHAR
STARTCHAR slash
ENCODING 47
SWIDTH 573 0
DWIDTH 12 0
BBX 13 18 1 -2
BITMAP
0010
0038
0030
0060
00e0
00c0
0180
0380
0300
0600
0e00
0c00
1800
3800
3000
6000
e000
4000
ENDCHAR
STARTCHAR zero
ENCODING 48
SWIDTH 573 0
DWIDTH 12 0
BBX 9 13 3 1
BITMAP
0f00
1f80
3180
7180
6180
6180
c180
c300
c300
c300
c600
fc00
7800
ENDCHAR
STARTCHAR one
ENCODING 49
SWIDTH 573 0
DWIDTH 12 0
BBX 9 13 2 1
BITMAP
0700
3f00
3300
0600
0600
0600
0600
0400
0c00
0c00
0c00
ff80
ff80
ENDCHAR
STARTCHAR two
ENCODING 50
SWIDTH 573 0
DWIDTH 12 0
BBX 11 13 1 1
BITMAP
07c0
1fe0
1860
0060
0060
00c0
01c0
0380
0e00
1cc0
38c0
7f80
ff80
ENDCHAR
STARTCHAR three
ENCODING 51
SWIDTH 573 0
DWIDTH 12 0
BBX 11 13 1 1
BITMAP
0780
1fe0
0860
0060
00c0
0780
0780
00c0
00c0
00c0
4180
ff80
3e00
ENDCHAR
STARTCHAR four
ENCODING 52
SWIDTH 573 0
DWIDTH 12 0
BBX 9 13 2 1
BITMAP
0380
0380
0500
0d00
1900
3300
6200
6200
ff80
ff80
0600
3f00
3f00
ENDCHAR
STARTCHAR five
ENCODING 53
SWIDTH 573 0
DWIDTH 12 0
BBX 11 13 2 1
BITMAP
1fe0
1fc0
3000
3000
3e00
3f00
3180
0180
0180
0180
0300
ff00
7c00
ENDCHAR
STARTCHAR six
ENCODING 54
SWIDTH 573 0
DWIDTH 12 0
BBX 10 13 3 1
BITMAP
07c0
1f80
3800
3000
6000
7e00
ff00
e300
c300
c300
c600
7e00
3800
ENDCHAR
STARTCHAR seven
ENCODING 55
SWIDTH 573 0
DWIDTH 12 0
BBX 10 13 4 1
BITMAP
7fc0
ffc0
c180
0180
0300
0600
0600
0c00
1c00
1800
3000
7000
6000
ENDCHAR
STARTCHAR eight
ENCODING 56
SWIDTH 573 0
DWIDTH 12 0
BBX 9 13 3 1
BITMAP
0f00
3f80
7180
6180
6300
3e00
7e00
e300
c300
c300
c700
fe00
7c00
ENDCHAR
STARTCHAR nine
ENCODING 57
SWIDTH 573 0
DWIDTH 12 0
BBX 10 13 2 1
BITMAP
0700
1f80
18c0
30c0
30c0
31c0
3fc0
1f80
0180
0300
0700
fc00
f800
ENDCHAR
STARTCHAR colon
ENCODING 58
SWIDTH 573 0
DWIDTH 12 0
BBX 5 9 5 1
BITMAP
38
78
78
20
00
70
f0
f0
40
ENDCHAR
STARTCHAR semicolon
ENCODING 59
SWIDTH 573 0
DWIDTH 12 0
BBX 7 11 3 -1
BITMAP
0e
1e
1e
08
00
1c
38
38
70
60
e0
ENDCHAR
STARTCHAR less
ENCODING 60
SWIDTH 573 0
DWIDTH 12 0
BBX 12 10 1 3
BITMAP
0020
00f0
03c0
1f00
7c00
7c00
1f00
07c0
00f0
0020
ENDCHAR
STARTCHAR equal
ENCODING 61
SWIDTH 573 0
DWIDTH 12 0
BBX 10 5 3 5
BITMAP
ffc0
ffc0
0000
ffc0
ffc0
ENDCHAR
STARTCHAR greater
ENCODING 62
SWIDTH 573 0
DWIDTH 12 0
BBX 11 10 2 3
BITMAP
4000
e000
7800
1e00
0380
01e0
0780
1e00
7800
e000
ENDCHAR
STARTCHAR question
ENCODING 63
SWIDTH 573 0
DWIDTH 12 0
BBX 8 12 4 1
BITMAP
3e
ff
c3
03
07
1e
38
30
20
70
f0
70
ENDCHAR
STARTCHAR at
ENCODING 64
SWIDTH 573 0
DWIDTH 12 0
BBX 13 12 1 1
BITMAP
07e0
1ff0
3bd8
77d8
6c98
cd98
dbb0
dfe0
ddc0
6020
7fe0
1f80
ENDCHAR
STARTCHAR A
ENCODING 65
SWIDTH 573 0
DWIDTH 12 0
BBX 13 12 0 1
BITMAP
07c0
0fc0
01c0
0340
0660
0460
0fe0
1fe0
1020
3030
f8f8
f8f8
ENDCHAR
STARTCHAR B
ENCODING 66
SWIDTH 573 0
DWIDTH 12 0
BBX 12 12 1 1
BITMAP
3fe0
3ff0
1830
1830
1860
1fc0
3fe0
3060
3060
3060
ffc0
ff80
ENDCHAR
STARTCHAR C
ENCODING 67
SWIDTH 573 0
DWIDTH 12 0
BBX 12 12 2 1
BITMAP
07a0
1ff0
3860
7060
6020
c000
c000
c000
c000
e0c0
7fc0
1f00
ENDCHAR
STARTCHAR D
ENCODING 68
SWIDTH 573 0
DWIDTH 12 0
BBX 13 12 0 1
BITMAP
1fe0
1ff0
0c18
0c18
0818
1818
1818
1830
1830
3060
7fc0
ff80
ENDCHAR
STARTCHAR E
ENCODING 69
SWIDTH 573 0
DWIDTH 12 0
BBX 13 12 1 1
BITMAP
3ff8
3ff8
0c18
0890
1890
1f80
1f80
19a0
3060
3060
ffe0
ffe0
ENDCHAR
STARTCHAR F
ENCODING 70
SWIDTH 573 0
DWIDTH 12 0
BBX 13 12 1 1
BITMAP
3ff8
3ff8
0c18
08b0
18d0
1f80
1f80
1980
3000
3000
fe00
fc00
ENDCHAR
STARTCHAR G
ENCODING 71
SWIDTH 573 0
DWIDTH 12 0
BBX 12 12 2 1
BITMAP
0fa0
1ff0
3860
6060
6040
c000
c3e0
c7e0
c0c0
e0c0
7fc0
3f00
ENDCHAR
STARTCHAR H
ENCODING 72
SWIDTH 573 0
DWIDTH 12 0
BBX 14 12 0 1
BITMAP
3e7c
3e7c
0830
1830
1830
1fe0
1fe0
3060
3060
3040
f9f0
f9f0
ENDCHAR
STARTCHAR I
ENCODING 73
SWIDTH 573 0
DWIDTH 12 0
BBX 12 12 1 1
BITMAP
3ff0
3ff0
0300
0300
0200
0600
0600
0600
0e00
0c00
ffc0
ffc0
ENDCHAR
STARTCHAR J
ENCODING 74
SWIDTH 573 0
DWIDTH 12 0
BBX 14 12 1 1
BITMAP
07fc
07fc
0060
0060
00c0
00c0
60c0
61c0
e1c0
e380
ff80
3e00
ENDCHAR
STARTCHAR K
ENCODING 75
SWIDTH 573 0
DWIDTH 12 0
BBX 14 12 1 1
BITMAP
3f7c
3ffc
0cf0
0dc0
1f80
1f00
1f80
1980
3980
30c0
fcf0
fcf0
ENDCHAR
STARTCHAR L
ENCODING 76
SWIDTH 573 0
DWIDTH 12 0
BBX 12 12 1 1
BITMAP
3f80
3f80
0c00
0c00
0800
1800
1830
1830
1820
1060
ffe0
ffe0
ENDCHAR
STARTCHAR M
ENCODING 77
SWIDTH 573 0
DWIDTH 12 0
BBX 15 12 0 1
BITMAP
1e1e
3e3e
0e38
1a78
1258
12d8
3390
3390
3330
2030
f8f8
f8f8
ENDCHAR
STARTCHAR N
ENCODING 78
SWIDTH 573 0
DWIDTH 12 0
BBX 15 12 0 1
BITMAP
3e3e
3e7e
1e18
1b18
1b18
1b18
11b0
31b0
31b0
30f0
fce0
f8e0
ENDCHAR
STARTCHAR O
ENCODING 79
SWIDTH 573 0
DWIDTH 12 0
BBX 11 12 2 1
BITMAP
0f80
1fc0
38e0
6060
6060
c060
c060
c0c0
c0c0
e380
7f00
3e00
ENDCHAR
STARTCHAR P
ENCODING 80
SWIDTH 573 0
DWIDTH 12 0
BBX 12 12 2 1
BITMAP
3fc0
3fe0
1830
1830
1870
10e0
3fe0
3f80
3000
3000
fc00
fc00
ENDCHAR
STARTCHAR Q
ENCODING 81
SWIDTH 573 0
DWIDTH 12 0
BBX 11 15 2 -2
BITMAP
0f80
1fc0
38e0
6060
6060
c060
c060
c0c0
c0c0
e380
7f00
7e00
3c80
7f80
4300
ENDCHAR
STARTCHAR R
ENCODING 82
SWIDTH 573 0
DWIDTH 12 0
BBX 12 12 1 1
BITMAP
3fe0
3ff0
1830
1830
1870
1fe0
3f80
3300
3180
3180
f8f0
f8f0
ENDCHAR
STARTCHAR S
ENCODING 83
SWIDTH 573 0
DWIDTH 12 0
BBX 13 12 1 1
BITMAP
07d0
1ff0
3830
3020
3800
1fc0
07e0
0060
6060
60e0
ffc0
df00
ENDCHAR
STARTCHAR T
ENCODING 84
SWIDTH 573 0
DWIDTH 12 0
BBX 12 12 2 1
BITMAP
7ff0
7ff0
6630
c620
c660
0400
0c00
0c00
0c00
0c00
7f00
7f00
ENDCHAR
STARTCHAR U
ENCODING 85
SWIDTH 573 0
DWIDTH 12 0
BBX 12 12 3 1
BITMAP
fbf0
fbf0
60c0
60c0
4080
4180
c180
c180
c180
c300
fe00
7c00
ENDCHAR
STARTCHAR V
ENCODING 86
SWIDTH 573 0
DWIDTH 12 0
BBX 13 12 2 1
BITMAP
f8f8
f8f8
2060
30c0
30c0
3180
3180
1300
1e00
1e00
1c00
1800
ENDCHAR
STARTCHAR W
ENCODING 87
SWIDTH 573 0
DWIDTH 12 0
BBX 13 12 2 1
BITMAP
f8f8
f8f8
4620
4660
4e60
4a40
5ac0
52c0
f380
e380
e300
c300
ENDCHAR
STARTCHAR X
ENCODING 88
SWIDTH 573 0
DWIDTH 12 0
BBX 14 12 0 1
BITMAP
1f7c
1f7c
0e30
06e0
03c0
0380
0780
0f80
18c0
30e0
fdf0
f9f0
ENDCHAR
STARTCHAR Y
ENCODING 89
SWIDTH 573 0
DWIDTH 12 0
BBX 12 12 3 1
BITMAP
f9f0
f9f0
30c0
3180
1b00
1e00
1c00
0800
1800
1800
7e00
fe00
ENDCHAR
STARTCHAR Z
ENCODING 90
SWIDTH 573 0
DWIDTH 12 0
BBX 12 12 1 1
BITMAP
1ff0
3ff0
30e0
31c0
0380
0700
0e00
1c60
3060
60c0
ffc0
ffc0
ENDCHAR
STARTCHAR bracketleft
ENCODING 91
SWIDTH 573 0
DWIDTH 12 0
BBX 8 16 5 -1
BITMAP
1f
1f
18
18
30
30
30
30
30
60
60
60
60
c0
f8
f8
ENDCHAR
STARTCHAR backslash
ENCODING 92
SWIDTH 573 0
DWIDTH 12 0
BBX 6 18 5 -2
BITMAP
c0
c0
c0
60
60
60
60
30
30
30
30
18
18
18
18
0c
0c
08
ENDCHAR
STARTCHAR bracketright
ENCODING 93
SWIDTH 573 0
DWIDTH 12 0
BBX 8 16 1 -1
BITMAP
1f
1f
02
06
06
06
06
0c
0c
0c
0c
0c
18
18
f8
f8
ENDCHAR
STARTCHAR asciicircum
ENCODING 94
SWIDTH 573 0
DWIDTH 12 0
BBX 10 9 3 4
BITMAP
1e00
1e00
1e00
3300
3300
7380
6180
6180
c0c0
ENDCHAR
STARTCHAR underscore
ENCODING 95
SWIDTH 573 0
DWIDTH 12 0
BBX 15 2 -1 -2
BITMAP
fffe
fffe
ENDCHAR
STARTCHAR quoteleft
ENCODING 96
SWIDTH 573 0
DWIDTH 12 0
BBX 6 6 5 7
BITMAP
0c
18
38
30
70
e0
ENDCHAR
STARTCHAR a
ENCODING 97
SWIDTH 573 0
DWIDTH 12 0
BBX 11 10 1 1
BITMAP
0f80
1fc0
10c0
1fc0
3fc0
7080
c080
c380
ffe0
7de0
ENDCHAR
STARTCHAR b
ENCODING 98
SWIDTH 573 0
DWIDTH 12 0
BBX 13 13 0 1
BITMAP
1c00
1c00
0c00
0bc0
0ff0
1e38
1818
1818
1818
3030
3870
ffe0
f780
ENDCHAR
STARTCHAR c
ENCODING 99
SWIDTH 573 0
DWIDTH 12 0
BBX 11 10 2 1
BITMAP
0f60
3fe0
70c0
60c0
c080
c000
c000
e180
7f80
3e00
ENDCHAR
STARTCHAR d
ENCODING 100
SWIDTH 573 0
DWIDTH 12 0
BBX 11 13 2 1
BITMAP
03e0
0360
0060
0f60
3fe0
71c0
60c0
c0c0
c0c0
c180
c380
7fe0
3dc0
ENDCHAR
STARTCHAR e
ENCODING 101
SWIDTH 573 0
DWIDTH 12 0
BBX 11 10 2 1
BITMAP
0f80
3fc0
70e0
6060
ffe0
ffe0
c000
e040
7fc0
3f00
ENDCHAR
STARTCHAR f
ENCODING 102
SWIDTH 573 0
DWIDTH 12 0
BBX 12 13 2 1
BITMAP
03c0
07e0
0c00
0c00
3fc0
3f80
0800
1800
1800
1800
1000
ff00
ff00
ENDCHAR
STARTCHAR g
ENCODING 103
SWIDTH 573 0
DWIDTH 12 0
BBX 12 13 2 -2
BITMAP
1ef0
3fe0
71c0
6180
c180
c180
c380
e780
7f00
3f00
0300
3e00
7c00
ENDCHAR
STARTCHAR h
ENCODING 104
SWIDTH 573 0
DWIDTH 12 0
BBX 13 13 0 1
BITMAP
1e00
1c00
0c00
0dc0
0ff0
0e30
0830
1830
1820
1860
1060
7df8
fdf0
ENDCHAR
STARTCHAR i
ENCODING 105
SWIDTH 573 0
DWIDTH 12 0
BBX 9 15 2 1
BITMAP
0180
0380
0300
0000
0000
3e00
3e00
0600
0400
0400
0c00
0c00
0c00
ff80
ff80
ENDCHAR
STARTCHAR j
ENCODING 106
SWIDTH 573 0
DWIDTH 12 0
BBX 11 18 0 -2
BITMAP
0060
00e0
00c0
0000
0000
1fc0
1fc0
00c0
00c0
00c0
0180
0180
0180
0180
0300
0700
7e00
7c00
ENDCHAR
STARTCHAR k
ENCODING 107
SWIDTH 573 0
DWIDTH 12 0
BBX 12 13 0 1
BITMAP
3c00
3c00
0c00
19f0
19f0
1980
1f00
1c00
1e00
3300
3180
f3e0
f3e0
ENDCHAR
STARTCHAR l
ENCODING 108
SWIDTH 573 0
DWIDTH 12 0
BBX 9 13 2 1
BITMAP
1f00
1f00
0200
0600
0600
0600
0400
0400
0c00
0c00
0c00
ff80
ff80
ENDCHAR
STARTCHAR m
ENCODING 109
SWIDTH 573 0
DWIDTH 12 0
BBX 13 10 0 1
BITMAP
3f70
3ff8
1998
3198
3118
3310
3330
2330
fbb8
f7b8
ENDCHAR
STARTCHAR n
ENCODING 110
SWIDTH 573 0
DWIDTH 12 0
BBX 12 10 0 1
BITMAP
3dc0
3ff0
0e30
1830
1830
1860
1860
3060
7df0
fdf0
ENDCHAR
STARTCHAR o
ENCODING 111
SWIDTH 573 0
DWIDTH 12 0
BBX 11 10 2 1
BITMAP
0f80
3fc0
70e0
6060
c060
c060
c0c0
c1c0
7f80
3e00
ENDCHAR
STARTCHAR p
ENCODING 112
SWIDTH 573 0
DWIDTH 12 0
BBX 14 13 -1 -2
BITMAP
1ff0
1ff8
0f1c
0c0c
0c0c
080c
1c18
1c38
1ff0
1bc0
1000
7e00
fe00
ENDCHAR
STARTCHAR q
ENCODING 113
SWIDTH 573 0
DWIDTH 12 0
BBX 12 13 2 -2
BITMAP
0f70
3ff0
71c0
60c0
c0c0
c0c0
c180
c380
7f80
3d80
0100
1fc0
1fc0
ENDCHAR
STARTCHAR r
ENCODING 114
SWIDTH 573 0
DWIDTH 12 0
BBX 12 10 1 1
BITMAP
3de0
3ff0
0f30
0c00
0800
1800
1800
1800
ff00
ff00
ENDCHAR
STARTCHAR s
ENCODING 115
SWIDTH 573 0
DWIDTH 12 0
BBX 10 10 2 1
BITMAP
1f40
3fc0
70c0
60c0
7f00
3fc0
c0c0
c1c0
ff80
be00
ENDCHAR
STARTCHAR t
ENCODING 116
SWIDTH 573 0
DWIDTH 12 0
BBX 9 12 3 1
BITMAP
1000
1000
3000
7f00
ff00
3000
2000
6000
6000
6080
7f80
3e00
ENDCHAR
STARTCHAR u
ENCODING 117
SWIDTH 573 0
DWIDTH 12 0
BBX 10 10 2 1
BITMAP
f3c0
f3c0
20c0
2080
2180
6180
6180
6380
7fc0
3fc0
ENDCHAR
STARTCHAR v
ENCODING 118
SWIDTH 573 0
DWIDTH 12 0
BBX 13 10 2 1
BITMAP
fcf8
f9f8
3060
30c0
3980
1b00
1b00
1e00
1c00
0c00
ENDCHAR
STARTCHAR w
ENCODING 119
SWIDTH 573 0
DWIDTH 12 0
BBX 13 10 2 1
BITMAP
f878
f078
6630
6660
6e60
6ec0
7bc0
7b80
3380
2300
ENDCHAR
STARTCHAR x
ENCODING 120
SWIDTH 573 0
DWIDTH 12 0
BBX 13 10 0 1
BITMAP
3ef8
3ef8
0c60
0680
0700
0700
0d80
38c0
f9f0
f9f0
ENDCHAR
STARTCHAR y
ENCODING 121
SWIDTH 573 0
DWIDTH 12 0
BBX 12 13 2 -2
BITMAP
f9f0
f9f0
20c0
60c0
6080
6180
6180
6780
3f80
3d00
0300
7f00
7c00
ENDCHAR
STARTCHAR z
ENCODING 122
SWIDTH 573 0
DWIDTH 12 0
BBX 11 10 2 1
BITMAP
3fe0
3fe0
31c0
2380
0600
0c00
38c0
7080
ff80
ff80
ENDCHAR
STARTCHAR braceleft
ENCODING 123
SWIDTH 573 0
DWIDTH 12 0
BBX 7 16 6 -1
BITMAP
0e
1e
30
30
30
30
30
e0
e0
60
60
e0
c0
c0
f0
70
ENDCHAR
STARTCHAR bar
ENCODING 124
SWIDTH 573 0
DWIDTH 12 0
BBX 2 18 7 -3
BITMAP
c0
c0
c0
c0
c0
c0
c0
c0
c0
c0
c0
c0
c0
c0
c0
c0
c0
c0
ENDCHAR
STARTCHAR braceright
ENCODING 125
SWIDTH 573 0
DWIDTH 12 0
BBX 7 16 2 -1
BITMAP
1c
1e
06
06
0c
0c
0c
0e
0e
18
18
18
18
18
f0
e0
ENDCHAR
STARTCHAR asciitilde
ENCODING 126
SWIDTH 573 0
DWIDTH 12 0
BBX 9 4 3 6
BITMAP
3100
ff80
df00
8600
ENDCHAR
STARTCHAR space
ENCODING 160
SWIDTH 573 0
DWIDTH 12 0
BBX 0 0 0 1
BITMAP
ENDCHAR
STARTCHAR Aogonek
ENCODING 161
SWIDTH 573 0
DWIDTH 12 0
BBX 13 15 0 -2
BITMAP
0fc0
0fc0
01c0
02c0
06e0
0c60
0fe0
1fe0
3060
3030
f9f8
f9f8
01c0
01e0
00e0
ENDCHAR
STARTCHAR breve
ENCODING 162
SWIDTH 573 0
DWIDTH 12 0
BBX 7 4 6 11
BITMAP
82
c4
7c
38
ENDCHAR
STARTCHAR Lslash
ENCODING 163
SWIDTH 573 0
DWIDTH 12 0
BBX 12 12 1 1
BITMAP
3f80
3f80
0c40
0dc0
0f80
1e00
7830
7830
1820
3060
ffe0
ffe0
ENDCHAR
STARTCHAR currency
ENCODING 164
SWIDTH 573 0
DWIDTH 12 0
BBX 11 10 2 2
BITMAP
6040
6fe0
3fc0
31c0
30c0
30c0
31c0
3fc0
6fe0
2040
ENDCHAR
STARTCHAR Lcaron
ENCODING 165
SWIDTH 573 0
DWIDTH 12 0
BBX 14 13 1 1
BITMAP
0038
3fe0
3f80
0c00
0c00
0800
1800
1830
1830
1820
1060
ffe0
ffe0
ENDCHAR
STARTCHAR Sacute
ENCODING 166
SWIDTH 573 0
DWIDTH 12 0
BBX 13 16 1 1
BITMAP
00e0
0180
0000
0000
07d0
1ff0
3830
3020
3800
1fc0
07e0
0060
6060
60e0
ffc0
df00
ENDCHAR
STARTCHAR section
ENCODING 167
SWIDTH 573 0
DWIDTH 12 0
BBX 11 14 2 -1
BITMAP
07e0
0fc0
1840
1c00
3e00
3780
33c0
18c0
0dc0
0f80
6700
6300
fe00
fc00
ENDCHAR
STARTCHAR dieresis
ENCODING 168
SWIDTH 573 0
DWIDTH 12 0
BBX 6 2 6 12
BITMAP
d8
d8
ENDCHAR
STARTCHAR Scaron
ENCODING 169
SWIDTH 573 0
DWIDTH 12 0
BBX 13 16 1 1
BITMAP
03f0
01c0
0000
0000
07d0
1ff0
3830
3020
3800
1fc0
07e0
0060
6060
60e0
ffc0
df00
ENDCHAR
STARTCHAR Scedilla
ENCODING 170
SWIDTH 573 0
DWIDTH 12 0
BBX 13 16 1 -3
BITMAP
07d0
1ff0
3830
3020
3800
1f80
07c0
0060
6060
60e0
ffc0
df00
0e00
0e00
3e00
1c00
ENDCHAR
STARTCHAR Tcaron
ENCODING 171
SWIDTH 573 0
DWIDTH 12 0
BBX 12 16 2 1
BITMAP
07e0
0380
0000
0000
7ff0
7ff0
6630
c620
c660
0400
0c00
0c00
0c00
0c00
7f00
7f00
ENDCHAR
STARTCHAR Zacute
ENCODING 172
SWIDTH 573 0
DWIDTH 12 0
BBX 12 16 1 1
BITMAP
00e0
0180
0000
0000
1ff0
3ff0
30e0
31c0
0380
0700
0e00
1c60
3060
60c0
ffc0
ffc0
ENDCHAR
STARTCHAR hyphen
ENCODING 173
SWIDTH 573 0
DWIDTH 12 0
BBX 5 2 5 6
BITMAP
f8
f8
ENDCHAR
STARTCHAR Zcaron
ENCODING 174
SWIDTH 573 0
DWIDTH 12 0
BBX 12 16 1 1
BITMAP
03f0
01c0
0000
0000
1ff0
3ff0
30e0
31c0
0380
0700
0e00
1c60
3060
60c0
ffc0
ffc0
ENDCHAR
STARTCHAR Zdotaccent
ENCODING 175
SWIDTH 573 0
DWIDTH 12 0
BBX 12 17 1 1
BITMAP
0080
0180
0180
0000
0000
1ff0
3ff0
30e0
31c0
0380
0700
0e00
1c60
3060
60c0
ffc0
ffc0
ENDCHAR
STARTCHAR degree
ENCODING 176
SWIDTH 573 0
DWIDTH 12 0
BBX 7 6 4 8
BITMAP
3c
fe
c6
c6
7c
38
ENDCHAR
STARTCHAR aogonek
ENCODING 177
SWIDTH 573 0
DWIDTH 12 0
BBX 11 13 1 -2
BITMAP
0f80
1fc0
10c0
0fc0
3fc0
7080
e080
c380
ffe0
7de0
0380
0380
0180
ENDCHAR
STARTCHAR ogonek
ENCODING 178
SWIDTH 573 0
DWIDTH 12 0
BBX 4 3 4 -2
BITMAP
e0
f0
60
ENDCHAR
STARTCHAR lslash
ENCODING 179
SWIDTH 573 0
DWIDTH 12 0
BBX 10 13 2 1
BITMAP
1f00
1e00
0600
0640
07c0
0780
1e00
7c00
2c00
0c00
0800
ff80
ff80
ENDCHAR
STARTCHAR acute
ENCODING 180
SWIDTH 573 0
DWIDTH 12 0
BBX 6 2 6 12
BITMAP
38
60
ENDCHAR
STARTCHAR lcaron
ENCODING 181
SWIDTH 573 0
DWIDTH 12 0
BBX 13 13 2 1
BITMAP
1f70
1fc0
0200
0600
0600
0600
0400
0400
0c00
0c00
0c00
ff80
ff80
ENDCHAR
STARTCHAR sacute
ENCODING 182
SWIDTH 573 0
DWIDTH 12 0
BBX 10 13 2 1
BITMAP
0380
0600
0000
1f40
3fc0
70c0
60c0
7f00
3fc0
c0c0
c1c0
ff80
be00
ENDCHAR
STARTCHAR caron
ENCODING 183
SWIDTH 573 0
DWIDTH 12 0
BBX 6 4 6 11
BITMAP
48
dc
78
70
ENDCHAR
STARTCHAR cedilla
ENCODING 184
SWIDTH 573 0
DWIDTH 12 0
BBX 5 5 3 -3
BITMAP
10
38
38
78
f0
ENDCHAR
STARTCHAR scaron
ENCODING 185
SWIDTH 573 0
DWIDTH 12 0
BBX 10 14 2 1
BITMAP
0480
0dc0
0780
0700
1f40
3fc0
70c0
60c0
7f00
3fc0
c0c0
c1c0
ff80
be00
ENDCHAR
STARTCHAR scedilla
ENCODING 186
SWIDTH 573 0
DWIDTH 12 0
BBX 10 14 2 -3
BITMAP
0f40
3fc0
70c0
60c0
7f00
3fc0
c0c0
c1c0
ff80
bf00
0e00
1e00
7e00
3c00
ENDCHAR
STARTCHAR tcaron
ENCODING 187
SWIDTH 573 0
DWIDTH 12 0
BBX 11 13 3 1
BITMAP
01c0
1300
1000
3000
7f00
ff00
3000
2000
6000
6000
6080
7f80
3e00
ENDCHAR
STARTCHAR zacute
ENCODING 188
SWIDTH 573 0
DWIDTH 12 0
BBX 11 13 2 1
BITMAP
0380
0600
0000
3fe0
3fe0
31c0
2380
0600
0c00
38c0
7080
ff80
ff80
ENDCHAR
STARTCHAR hungarumlaut
ENCODING 189
SWIDTH 573 0
DWIDTH 12 0
BBX 9 3 5 11
BITMAP
3b00
ec00
8800
ENDCHAR
STARTCHAR zcaron
ENCODING 190
SWIDTH 573 0
DWIDTH 12 0
BBX 11 14 2 1
BITMAP
0480
0dc0
0780
0700
3fe0
3fe0
31c0
2380
0600
0c00
38c0
7080
ff80
ff80
ENDCHAR
STARTCHAR zdotaccent
ENCODING 191
SWIDTH 573 0
DWIDTH 12 0
BBX 11 14 2 1
BITMAP
0100
0300
0300
0000
3fe0
3fe0
31c0
2380
0600
0c00
38c0
7080
ff80
ff80
ENDCHAR
STARTCHAR Racute
ENCODING 192
SWIDTH 573 0
DWIDTH 12 0
BBX 12 16 1 1
BITMAP
00e0
0180
0000
0000
3fe0
3ff0
1830
1830
1870
1fe0
3f80
3300
3180
3180
f8f0
f8f0
ENDCHAR
STARTCHAR Aacute
ENCODING 193
SWIDTH 573 0
DWIDTH 12 0
BBX 13 16 0 1
BITMAP
0070
00c0
0000
0000
07c0
0fc0
01c0
0340
0660
0460
0fe0
1fe0
1020
3030
f8f8
f8f8
ENDCHAR
STARTCHAR Acircumflex
ENCODING 194
SWIDTH 573 0
DWIDTH 12 0
BBX 13 17 0 1
BITMAP
01c0
03c0
0660
0000
0000
07c0
0fc0
01c0
0340
0660
0460
0fe0
1fe0
1020
3030
f8f8
f8f8
ENDCHAR
STARTCHAR Abreve
ENCODING 195
SWIDTH 573 0
DWIDTH 12 0
BBX 13 17 0 1
BITMAP
0410
0630
03e0
01c0
0000
07c0
0fc0
01c0
0340
0660
0460
0fe0
1fe0
1020
3030
f8f8
f8f8
ENDCHAR
STARTCHAR Adieresis
ENCODING 196
SWIDTH 573 0
DWIDTH 12 0
BBX 13 16 0 1
BITMAP
01b0
01b0
0000
0000
07c0
0fc0
01c0
0340
0660
0460
0fe0
1fe0
1020
3030
f8f8
f8f8
ENDCHAR
STARTCHAR Lacute
ENCODING 197
SWIDTH 573 0
DWIDTH 12 0
BBX 12 16 1 1
BITMAP
0380
0600
0000
0000
3f80
3f80
0c00
0c00
0800
1800
1830
1830
1820
1060
ffe0
ffe0
ENDCHAR
STARTCHAR Cacute
ENCODING 198
SWIDTH 573 0
DWIDTH 12 0
BBX 12 16 2 1
BITMAP
01c0
0300
0000
0000
07a0
1ff0
3860
7060
6020
c000
c000
c000
c000
e0c0
7fc0
1f00
ENDCHAR
STARTCHAR Ccedilla
ENCODING 199
SWIDTH 573 0
DWIDTH 12 0
BBX 12 16 2 -3
BITMAP
07a0
1ff0
3860
7060
6020
c000
c000
c000
c000
e0c0
7fc0
3f00
0c00
0e00
3e00
3c00
ENDCHAR
STARTCHAR Ccaron
ENCODING 200
SWIDTH 573 0
DWIDTH 12 0
BBX 12 16 2 1
BITMAP
07e0
0380
0000
0000
07a0
1ff0
3860
7060
6020
c000
c000
c000
c000
e0c0
7fc0
1f00
ENDCHAR
STARTCHAR Eacute
ENCODING 201
SWIDTH 573 0
DWIDTH 12 0
BBX 13 16 1 1
BITMAP
00e0
0180
0000
0000
3ff8
3ff8
0c18
0890
1890
1f80
1f80
19a0
3060
3060
ffe0
ffe0
ENDCHAR
STARTCHAR Eogonek
ENCODING 202
SWIDTH 573 0
DWIDTH 12 0
BBX 13 15 1 -2
BITMAP
3ff8
3ff8
0c18
18b0
1890
1f80
1f80
11a0
3060
3060
ffe0
ffe0
0380
03c0
0180
ENDCHAR
STARTCHAR Edieresis
ENCODING 203
SWIDTH 573 0
DWIDTH 12 0
BBX 13 16 1 1
BITMAP
0360
0360
0000
0000
3ff8
3ff8
0c18
0890
1890
1f80
1f80
19a0
3060
3060
ffe0
ffe0
ENDCHAR
STARTCHAR Ecaron
ENCODING 204
SWIDTH 573 0
DWIDTH 12 0
BBX 13 16 1 1
BITMAP
03f0
01c0
0000
0000
3ff8
3ff8
0c18
0890
1890
1f80
1f80
19a0
3060
3060
ffe0
ffe0
ENDCHAR
STARTCHAR Iacute
ENCODING 205
SWIDTH 573 0
DWIDTH 12 0
BBX 12 16 1 1
BITMAP
00e0
0180
0000
0000
3ff0
3ff0
0300
0300
0200
0600
0600
0600
0e00
0c00
ffc0
ffc0
ENDCHAR
STARTCHAR Icircumflex
ENCODING 206
SWIDTH 573 0
DWIDTH 12 0
BBX 12 17 1 1
BITMAP
01c0
03c0
0660
0000
0000
3ff0
3ff0
0300
0300
0200
0600
0600
0600
0e00
0c00
ffc0
ffc0
ENDCHAR
STARTCHAR Dcaron
ENCODING 207
SWIDTH 573 0
DWIDTH 12 0
BBX 13 16 0 1
BITMAP
03f0
01c0
0000
0000
1fe0
1ff0
0c18
0c18
0818
1818
1818
1830
1830
3060
7fc0
ff80
ENDCHAR
STARTCHAR Eth
ENCODING 208
SWIDTH 573 0
DWIDTH 12 0
BBX 13 12 0 1
BITMAP
1fe0
1ff0
0c18
0c18
0818
3f98
3f98
1830
1830
3060
7fc0
ff80
ENDCHAR
STARTCHAR Nacute
ENCODING 209
SWIDTH 573 0
DWIDTH 12 0
BBX 15 16 0 1
BITMAP
0070
00c0
0000
0000
3e3e
3e7e
1e18
1b18
1b18
1b18
11b0
31b0
31b0
30f0
fce0
f8e0
ENDCHAR
STARTCHAR Ncaron
ENCODING 210
SWIDTH 573 0
DWIDTH 12 0
BBX 15 16 0 1
BITMAP
01f8
00e0
0000
0000
3e3e
3e7e
1e18
1b18
1b18
1b18
11b0
31b0
31b0
30f0
fce0
f8e0
ENDCHAR
STARTCHAR Oacute
ENCODING 211
SWIDTH 573 0
DWIDTH 12 0
BBX 11 16 2 1
BITMAP
01c0
0300
0000
0000
0f80
1fc0
38e0
6060
6060
c060
c060
c0c0
c0c0
e380
7f00
3e00
ENDCHAR
STARTCHAR Ocircumflex
ENCODING 212
SWIDTH 573 0
DWIDTH 12 0
BBX 11 17 2 1
BITMAP
0380
0780
0cc0
0000
0000
0f80
1fc0
38e0
6060
6060
c060
c060
c0c0
c0c0
e380
7f00
3e00
ENDCHAR
STARTCHAR Ohungarumlaut
ENCODING 213
SWIDTH 573 0
DWIDTH 12 0
BBX 12 16 2 1
BITMAP
0760
1d80
1100
0000
0f80
1fc0
38e0
6060
6060
c060
c060
c0c0
c0c0
e380
7f00
3e00
ENDCHAR
STARTCHAR Odieresis
ENCODING 214
SWIDTH 573 0
DWIDTH 12 0
BBX 11 16 2 1
BITMAP
06c0
06c0
0000
0000
0f80
1fc0
38e0
6060
6060
c060
c060
c0c0
c0c0
e380
7f00
3e00
ENDCHAR
STARTCHAR multiply
ENCODING 215
SWIDTH 573 0
DWIDTH 12 0
BBX 9 9 3 3
BITMAP
4100
e380
7700
3e00
1c00
3e00
7700
e380
4100
ENDCHAR
STARTCHAR Rcaron
ENCODING 216
SWIDTH 573 0
DWIDTH 12 0
BBX 12 16 1 1
BITMAP
03f0
01c0
0000
0000
3fe0
3ff0
1830
1830
1870
1fe0
3f80
3300
3180
3180
f8f0
f8f0
ENDCHAR
STARTCHAR Uring
ENCODING 217
SWIDTH 573 0
DWIDTH 12 0
BBX 12 18 3 1
BITMAP
0600
0f00
0f00
0f00
0600
0000
fbf0
fbf0
60c0
60c0
4080
4180
c180
c180
c180
c300
fe00
7c00
ENDCHAR
STARTCHAR Uacute
ENCODING 218
SWIDTH 573 0
DWIDTH 12 0
BBX 12 16 3 1
BITMAP
0380
0600
0000
0000
fbf0
fbf0
60c0
60c0
4080
4180
c180
c180
c180
c300
fe00
7c00
ENDCHAR
STARTCHAR Uhungarumlaut
ENCODING 219
SWIDTH 573 0
DWIDTH 12 0
BBX 12 16 3 1
BITMAP
0ec0
3b00
2200
0000
fbf0
fbf0
60c0
60c0
4080
4180
c180
c180
c180
c300
fe00
7c00
ENDCHAR
STARTCHAR Udieresis
ENCODING 220
SWIDTH 573 0
DWIDTH 12 0
BBX 12 16 3 1
BITMAP
0d80
0d80
0000
0000
fbf0
fbf0
60c0
60c0
4080
4180
c180
c180
c180
c300
fe00
7c00
ENDCHAR
STARTCHAR Yacute
ENCODING 221
SWIDTH 573 0
DWIDTH 12 0
BBX 12 16 3 1
BITMAP
0380
0600
0000
0000
f9f0
f9f0
30c0
3180
1b00
1e00
1c00
0800
1800
1800
7e00
fe00
ENDCHAR
STARTCHAR Tcedilla
ENCODING 222
SWIDTH 573 0
DWIDTH 12 0
BBX 12 16 2 -3
BITMAP
7ff0
7ff0
6630
c620
c660
0400
0c00
0c00
0c00
0c00
7f00
7f00
0e00
1e00
3e00
3c00
ENDCHAR
STARTCHAR germandbls
ENCODING 223
SWIDTH 573 0
DWIDTH 12 0
BBX 11 14 1 1
BITMAP
0380
07c0
0c60
1860
18e0
19c0
1b80
13c0
30e0
3060
3060
30e0
efc0
e700
ENDCHAR
STARTCHAR racute
ENCODING 224
SWIDTH 573 0
DWIDTH 12 0
BBX 12 13 1 1
BITMAP
01c0
0300
0000
3de0
3ff0
0f30
0c00
0800
1800
1800
1800
ff00
ff00
ENDCHAR
STARTCHAR aacute
ENCODING 225
SWIDTH 573 0
DWIDTH 12 0
BBX 11 13 1 1
BITMAP
01c0
0300
0000
0f80
1fc0
10c0
1fc0
3fc0
7080
c080
c380
ffe0
7de0
ENDCHAR
STARTCHAR acircumflex
ENCODING 226
SWIDTH 573 0
DWIDTH 12 0
BBX 11 14 1 1
BITMAP
01c0
03e0
0240
0000
0f80
1fc0
10c0
1fc0
3fc0
7080
c080
c380
ffe0
7de0
ENDCHAR
STARTCHAR abreve
ENCODING 227
SWIDTH 573 0
DWIDTH 12 0
BBX 12 14 1 1
BITMAP
0410
0620
03e0
01c0
0f80
1fc0
10c0
1fc0
3fc0
7080
c080
c380
ffe0
7de0
ENDCHAR
STARTCHAR adieresis
ENCODING 228
SWIDTH 573 0
DWIDTH 12 0
BBX 11 13 1 1
BITMAP
06c0
06c0
0000
0f80
1fc0
10c0
1fc0
3fc0
7080
c080
c380
ffe0
7de0
ENDCHAR
STARTCHAR lacute
ENCODING 229
SWIDTH 573 0
DWIDTH 12 0
BBX 10 17 2 1
BITMAP
0380
0600
0000
0000
1f00
1f00
0200
0600
0600
0600
0400
0400
0c00
0c00
0c00
ff80
ff80
ENDCHAR
STARTCHAR cacute
ENCODING 230
SWIDTH 573 0
DWIDTH 12 0
BBX 11 13 2 1
BITMAP
0380
0600
0000
0f60
3fe0
70c0
60c0
c080
c000
c000
e180
7f80
3e00
ENDCHAR
STARTCHAR ccedilla
ENCODING 231
SWIDTH 573 0
DWIDTH 12 0
BBX 11 14 2 -3
BITMAP
0f60
1fe0
30c0
60c0
c080
c000
c000
c080
7f80
3e00
0c00
1e00
3e00
3c00
ENDCHAR
STARTCHAR ccaron
ENCODING 232
SWIDTH 573 0
DWIDTH 12 0
BBX 11 14 2 1
BITMAP
0480
0dc0
0780
0700
0f60
3fe0
70c0
60c0
c080
c000
c000
e180
7f80
3e00
ENDCHAR
STARTCHAR eacute
ENCODING 233
SWIDTH 573 0
DWIDTH 12 0
BBX 11 13 2 1
BITMAP
0380
0600
0000
0f80
3fc0
70e0
6060
ffe0
ffe0
c000
e040
7fc0
3f00
ENDCHAR
STARTCHAR eogonek
ENCODING 234
SWIDTH 573 0
DWIDTH 12 0
BBX 11 13 2 -2
BITMAP
0f80
3fc0
70e0
6060
ffe0
ffe0
c000
c040
7fc0
3f00
3800
3c00
1c00
ENDCHAR
STARTCHAR edieresis
ENCODING 235
SWIDTH 573 0
DWIDTH 12 0
BBX 11 13 2 1
BITMAP
0d80
0d80
0000
0f80
3fc0
70e0
6060
ffe0
ffe0
c000
e040
7fc0
3f00
ENDCHAR
STARTCHAR ecaron
ENCODING 236
SWIDTH 573 0
DWIDTH 12 0
BBX 11 14 2 1
BITMAP
0480
0dc0
0780
0700
0f80
3fc0
70e0
6060
ffe0
ffe0
c000
e040
7fc0
3f00
ENDCHAR
STARTCHAR iacute
ENCODING 237
SWIDTH 573 0
DWIDTH 12 0
BBX 10 13 2 1
BITMAP
0380
0600
0000
3e00
3e00
0600
0400
0400
0c00
0c00
0c00
ff80
ff80
ENDCHAR
STARTCHAR icircumflex
ENCODING 238
SWIDTH 573 0
DWIDTH 12 0
BBX 10 14 2 1
BITMAP
0380
07c0
0480
0000
3e00
3e00
0600
0400
0400
0c00
0c00
0c00
ff80
ff80
ENDCHAR
STARTCHAR dcaron
ENCODING 239
SWIDTH 573 0
DWIDTH 12 0
BBX 17 13 2 1
BITMAP
03e700
036c00
006000
0f6000
3fe000
71c000
60c000
c0c000
c0c000
c18000
c38000
7fe000
3dc000
ENDCHAR
STARTCHAR dbar
ENCODING 240
SWIDTH 573 0
DWIDTH 12 0
BBX 12 13 2 1
BITMAP
03e0
0060
0ff0
07f0
1ec0
3fc0
71c0
e0c0
c180
c180
c380
7fc0
3dc0
ENDCHAR
STARTCHAR nacute
ENCODING 241
SWIDTH 573 0
DWIDTH 12 0
BBX 12 13 0 1
BITMAP
00e0
0180
0000
3dc0
3ff0
0e30
1830
1830
1860
1860
3060
7df0
fdf0
ENDCHAR
STARTCHAR ncaron
ENCODING 242
SWIDTH 573 0
DWIDTH 12 0
BBX 12 14 0 1
BITMAP
0120
0370
01e0
01c0
3dc0
3ff0
0e30
1830
1830
1860
1860
3060
7df0
fdf0
ENDCHAR
STARTCHAR oacute
ENCODING 243
SWIDTH 573 0
DWIDTH 12 0
BBX 11 13 2 1
BITMAP
0380
0600
0000
0f80
3fc0
70e0
6060
c060
c060
c0c0
c1c0
7f80
3e00
ENDCHAR
STARTCHAR ocircumflex
ENCODING 244
SWIDTH 573 0
DWIDTH 12 0
BBX 11 14 2 1
BITMAP
0380
07c0
0480
0000
0f80
3fc0
70e0
6060
c060
c060
c0c0
c1c0
7f80
3e00
ENDCHAR
STARTCHAR ohungarumlaut
ENCODING 245
SWIDTH 573 0
DWIDTH 12 0
BBX 12 13 2 1
BITMAP
0760
1d80
1100
0f80
3fc0
70e0
6060
c060
c060
c0c0
c1c0
7f80
3e00
ENDCHAR
STARTCHAR odieresis
ENCODING 246
SWIDTH 573 0
DWIDTH 12 0
BBX 11 13 2 1
BITMAP
0d80
0d80
0000
0f80
3fc0
70e0
6060
c060
c060
c0c0
c1c0
7f80
3e00
ENDCHAR
STARTCHAR divide
ENCODING 247
SWIDTH 573 0
DWIDTH 12 0
BBX 11 10 2 2
BITMAP
0600
0e00
0400
ffe0
ffe0
0000
0000
0600
0e00
0400
ENDCHAR
STARTCHAR rcaron
ENCODING 248
SWIDTH 573 0
DWIDTH 12 0
BBX 12 14 1 1
BITMAP
0240
06e0
03c0
0380
3de0
3ff0
0f30
0c00
0800
1800
1800
1800
ff00
ff00
ENDCHAR
STARTCHAR uring
ENCODING 249
SWIDTH 573 0
DWIDTH 12 0
BBX 10 15 2 1
BITMAP
0700
0f80
0d80
0f00
0600
f3c0
f3c0
20c0
2080
2180
6180
6180
6380
7fc0
3fc0
ENDCHAR
STARTCHAR uacute
ENCODING 250
SWIDTH 573 0
DWIDTH 12 0
BBX 10 13 2 1
BITMAP
0380
0600
0000
f3c0
f3c0
20c0
2080
2180
6180
6180
6380
7fc0
3fc0
ENDCHAR
STARTCHAR uhungarumlaut
ENCODING 251
SWIDTH 573 0
DWIDTH 12 0
BBX 12 13 2 1
BITMAP
0760
1d80
1100
f3c0
f3c0
20c0
2080
2180
6180
6180
6380
7fc0
3fc0
ENDCHAR
STARTCHAR udieresis
ENCODING 252
SWIDTH 573 0
DWIDTH 12 0
BBX 10 13 2 1
BITMAP
0d80
0d80
0000
f3c0
f3c0
20c0
2080
2180
6180
6180
6380
7fc0
3fc0
ENDCHAR
STARTCHAR yacute
ENCODING 253
SWIDTH 573 0
DWIDTH 12 0
BBX 12 16 2 -2
BITMAP
0380
0600
0000
f9f0
f9f0
20c0
60c0
6080
6180
6180
6780
3f80
3d00
0300
7f00
7c00
ENDCHAR
STARTCHAR tcedilla
ENCODING 254
SWIDTH 573 0
DWIDTH 12 0
BBX 9 16 3 -3
BITMAP
1000
1000
3000
7f00
ff00
3000
2000
6000
6000
6080
7f80
3e00
1c00
1c00
7c00
3800
ENDCHAR
STARTCHAR dotaccent
ENCODING 255
SWIDTH 573 0
DWIDTH 12 0
BBX 2 3 8 12
BITMAP
40
c0
c0
ENDCHAR
ENDFONT
